<svg width="65" height="75" viewBox="0 0 65 75" fill="none" xmlns="http://www.w3.org/2000/svg">
<path d="M61.2077 50.0845C59.1918 55.5479 56.1431 60.2984 52.1451 64.2025C47.5943 68.6462 41.6354 72.1773 34.4336 74.6962C34.1973 74.7786 33.9507 74.8461 33.7029 74.8959C33.3756 74.9605 33.0426 74.9954 32.7124 75H32.6478C32.2959 75 31.9422 74.9645 31.5915 74.8959C31.3437 74.8461 31.1005 74.7786 30.8653 74.6979C23.655 72.183 17.6886 68.6537 13.1333 64.2099C9.13356 60.3058 6.08543 55.5582 4.07241 50.0948C0.412012 40.1613 0.620295 29.2185 0.787951 20.4248L0.790812 20.2898C0.824572 19.5636 0.846316 18.8009 0.858332 17.9586C0.919558 13.8233 4.20745 10.4021 8.34335 10.1715C16.9665 9.69025 23.6372 6.87786 29.337 1.32233L29.3868 1.27655C30.3332 0.408514 31.5257 -0.0172063 32.7124 0.000532164C33.8568 0.0154095 34.9967 0.440558 35.9093 1.27655L35.958 1.32233C41.6588 6.87786 48.3296 9.69025 56.9527 10.1715C61.0886 10.4021 64.3765 13.8233 64.4378 17.9586C64.4498 18.8066 64.4715 19.5682 64.5053 20.2898L64.507 20.347C64.6741 29.1572 64.8812 40.1218 61.2077 50.0845Z" fill="url(#paint0_linear)"/>
<defs>
<linearGradient id="paint0_linear" x1="32.6472" y1="0" x2="32.6472" y2="75" gradientUnits="userSpaceOnUse">
<stop stop-color="white"/>
</linearGradient>
</defs>
</svg>
